<svg xmlns="http://www.w3.org/2000/svg" x="0px" y="0px"
width="50" height="50"
viewBox="0 0 172 172"
style=" fill:#000000;"><g fill="none" fill-rule="nonzero" stroke="none" stroke-width="1" stroke-linecap="butt" stroke-linejoin="miter" stroke-miterlimit="10" stroke-dasharray="" stroke-dashoffset="0" font-family="none" font-weight="none" font-size="none" text-anchor="none" style="mix-blend-mode: normal"><path d="M0,172v-172h172v172z" fill="none"></path><g fill="#ffffff"><path d="M20.64,10.32c-5.65719,0 -10.32,4.66281 -10.32,10.32v130.72c0,5.65719 4.66281,10.32 10.32,10.32h130.72c5.65719,0 10.32,-4.66281 10.32,-10.32v-130.72c0,-5.65719 -4.66281,-10.32 -10.32,-10.32zM20.64,17.2h130.72c1.90813,0 3.44,1.53188 3.44,3.44v130.72c0,1.90813 -1.53187,3.44 -3.44,3.44h-130.72c-1.90812,0 -3.44,-1.53187 -3.44,-3.44v-130.72c0,-1.90812 1.53188,-3.44 3.44,-3.44zM123.5175,67.725c-13.07469,0 -18.92,10.66938 -18.92,20.64c0,15.48 11.00531,20.64 18.92,20.64c6.88,0 9.9975,-3.41312 11.7175,-5.4825l0.9675,4.515h4.8375v-20.3175h-16.8775v5.16h10.32c0,1.37063 -0.29562,10.6425 -10.965,10.6425c-11.35469,0 -12.04,-13.4375 -12.04,-15.1575c0,-12.72531 8.6,-15.05 12.04,-15.05c8.25063,0 9.64813,6.47688 9.9975,7.8475h6.88c-0.34937,-2.06937 -2.43219,-13.4375 -16.8775,-13.4375zM32.035,68.8v39.2375h16.125c11.00531,0 17.2,-7.6325 17.2,-19.6725c0,-7.56531 -2.75469,-19.565 -17.2,-19.565zM71.9175,68.8v38.915h28.4875v-5.9125h-21.6075v-11.2875h19.8875v-5.59h-19.8875v-10.32h21.285v-5.805zM38.915,74.2825h6.88c8.6,0 13.0075,3.7625 13.0075,14.0825c0,5.84531 -0.61812,14.19 -13.0075,14.19h-6.88z"></path></g></g></svg>