<svg xmlns="http://www.w3.org/2000/svg" x="0px" y="0px"
width="50" height="50"
viewBox="0 0 172 172"
style=" fill:#000000;"><g fill="none" fill-rule="nonzero" stroke="none" stroke-width="1" stroke-linecap="butt" stroke-linejoin="miter" stroke-miterlimit="10" stroke-dasharray="" stroke-dashoffset="0" font-family="none" font-weight="none" font-size="none" text-anchor="none" style="mix-blend-mode: normal"><path d="M0,172v-172h172v172z" fill="none"></path><g fill="#ffffff"><path d="M73.96,0c-40.7425,0 -73.96,33.2175 -73.96,73.96c0,40.7425 33.2175,73.96 73.96,73.96c10.4275,0 20.59969,-2.0425 29.67,-6.02c2.60688,16.985 16.72969,30.1 33.97,30.1c19.12156,0 34.4,-16.15187 34.4,-35.7975c0,-12.32219 -8.15656,-27.43937 -16.0175,-40.0975c-3.10406,-5.01219 -6.08719,-9.29875 -8.7075,-13.0075c0.30906,-2.83531 0.645,-5.9125 0.645,-9.1375c0,-40.7425 -33.2175,-73.96 -73.96,-73.96zM73.96,6.88c37.00688,0 67.08,30.07313 67.08,67.08c0,0.17469 0,0.36281 0,0.5375c-0.08062,-0.1075 -0.7525,-0.9675 -0.7525,-0.9675l-2.6875,-3.44l-2.6875,3.44c0,0 -0.65844,0.95406 -0.7525,1.075c0,-0.215 0,-0.43 0,-0.645c0,-33.16375 -27.03625,-60.2 -60.2,-60.2c-33.16375,0 -60.2,27.03625 -60.2,60.2c0,33.16375 27.03625,60.2 60.2,60.2c11.24719,0 21.91656,-3.18469 30.96,-8.6c-0.86,3.03688 -1.43781,5.97969 -1.6125,8.815c-8.72094,4.3 -18.89312,6.665 -29.3475,6.665c-37.00687,0 -67.08,-30.07312 -67.08,-67.08c0,-37.00687 30.07313,-67.08 67.08,-67.08zM73.96,20.64c29.44156,0 53.32,23.87844 53.32,53.32c0,3.9775 -0.56437,8.08938 -1.505,12.255c-2.06937,3.01 -4.3,6.24844 -6.5575,9.89c-3.41312,5.50938 -6.83969,11.51594 -9.675,17.5225c-9.29875,8.37156 -21.99719,13.6525 -35.5825,13.6525c-29.44156,0 -53.32,-23.87844 -53.32,-53.32c0,-29.44156 23.87844,-53.32 53.32,-53.32zM73.96,30.96c-23.83812,0 -43,19.16188 -43,43c0,12.71188 5.61688,23.99938 14.19,31.82c1.42438,1.27656 3.61469,1.15563 4.89125,-0.26875c1.27656,-1.42437 1.15563,-3.61469 -0.26875,-4.89125c-7.25625,-6.62469 -11.9325,-15.97719 -11.9325,-26.66c0,-20.18312 15.93688,-36.12 36.12,-36.12c9.52719,0 18.10031,3.58781 24.51,9.46c-8.30437,6.54406 -17.72406,13.88094 -23.22,18.1675c-0.43,-0.06719 -0.84656,-0.1075 -1.29,-0.1075c-4.74344,0 -8.6,3.85656 -8.6,8.6c0,4.74344 3.85656,8.6 8.6,8.6c4.63594,0 8.42531,-3.68187 8.6,-8.2775c4.77031,-4.81062 13.38375,-13.51812 20.9625,-21.1775c4.09844,5.85875 6.5575,13.03438 6.5575,20.855c0,10.68281 -4.67625,20.03531 -11.9325,26.66c-1.42437,1.27656 -1.54531,3.46688 -0.26875,4.89125c1.27656,1.42438 3.46688,1.54531 4.89125,0.26875c8.57313,-7.82062 14.19,-19.10812 14.19,-31.82c0,-9.71531 -3.225,-18.62437 -8.6,-25.8c0.48375,-0.49719 2.71438,-2.71437 2.795,-2.795c1.03469,-1.37062 1.35719,-3.05031 0.3225,-4.085c-1.37062,-1.72 -3.14437,-1.67969 -4.515,-0.645c-0.05375,0.05375 -2.60687,2.05594 -3.1175,2.4725c-7.72656,-7.48469 -18.20781,-12.1475 -29.885,-12.1475zM137.6,81.7c0.61813,0.79281 1.88125,2.40531 2.9025,3.7625c0.24188,0.80625 0.77938,1.49156 1.505,1.935c2.17688,2.99656 4.78375,6.90688 8.17,12.3625c7.61906,12.28188 14.9425,27.43938 14.9425,36.4425c0,16.125 -12.24156,28.9175 -27.52,28.9175c-14.96937,0 -27.03625,-12.28187 -27.52,-27.95c0.04031,-0.3225 0.04031,-0.645 0,-0.9675c0,-4.8375 2.12313,-11.48906 5.2675,-18.49c0.04031,-0.06719 0.08063,-0.14781 0.1075,-0.215c0.01344,-0.04031 0.09406,-0.06719 0.1075,-0.1075c0.34938,-0.47031 0.57781,-1.03469 0.645,-1.6125c2.55313,-5.42875 5.65719,-10.93812 8.815,-16.0175c2.44563,-3.95062 4.515,-6.96062 6.3425,-9.5675c0.38969,-0.38969 0.68531,-0.87344 0.86,-1.3975c2.39188,-3.35937 4.27313,-5.67062 5.375,-7.095zM130.6125,106.21c-1.12875,0.17469 -2.09625,0.90031 -2.58,1.935c-0.87344,1.76031 -3.73562,6.61125 -6.235,12.04c-2.49937,5.42875 -4.8375,11.56969 -4.8375,17.415c0,5.96625 2.82188,11.51594 6.9875,15.265c0.87344,0.9675 2.23063,1.37063 3.49375,1.00781c1.24969,-0.34938 2.20375,-1.38406 2.44563,-2.67406c0.24187,-1.29 -0.26875,-2.60687 -1.31688,-3.38625c-2.71437,-2.44562 -4.73,-6.54406 -4.73,-10.2125c0,-3.78937 1.86781,-9.46 4.1925,-14.5125c2.32469,-5.0525 4.945,-9.46 6.1275,-11.825c0.57781,-1.10187 0.5375,-2.41875 -0.13437,-3.46687c-0.67188,-1.04813 -1.85438,-1.65281 -3.09063,-1.58563c-0.1075,0 -0.215,0 -0.3225,0z"></path></g></g></svg>