<svg xmlns="http://www.w3.org/2000/svg" x="0px" y="0px"
width="50" height="50"
viewBox="0 0 172 172"
style=" fill:#000000;"><g fill="none" fill-rule="nonzero" stroke="none" stroke-width="1" stroke-linecap="butt" stroke-linejoin="miter" stroke-miterlimit="10" stroke-dasharray="" stroke-dashoffset="0" font-family="none" font-weight="none" font-size="none" text-anchor="none" style="mix-blend-mode: normal"><path d="M0,172v-172h172v172z" fill="none"></path><g fill="#ffffff"><path d="M86,6.88c-43.65844,0 -79.12,35.46156 -79.12,79.12c0,43.65844 35.46156,79.12 79.12,79.12c43.65844,0 79.12,-35.46156 79.12,-79.12c0,-43.65844 -35.46156,-79.12 -79.12,-79.12zM86,13.76c39.93625,0 72.24,32.30375 72.24,72.24c0,39.93625 -32.30375,72.24 -72.24,72.24c-39.93625,0 -72.24,-32.30375 -72.24,-72.24c0,-39.93625 32.30375,-72.24 72.24,-72.24zM86,27.52c-1.89469,0 -3.44,1.54531 -3.44,3.44c0,1.89469 1.54531,3.44 3.44,3.44c1.89469,0 3.44,-1.54531 3.44,-3.44c0,-1.89469 -1.54531,-3.44 -3.44,-3.44zM64.93,31.7125c-0.44344,0 -0.84656,0.02688 -1.29,0.215c-1.76031,0.72563 -2.66062,2.75469 -1.935,4.515c0.72563,1.76031 2.75469,2.66063 4.515,1.935c1.76031,-0.72562 2.66063,-2.75469 1.935,-4.515c-0.55094,-1.31687 -1.88125,-2.13656 -3.225,-2.15zM107.07,31.7125c-1.34375,0.01344 -2.67406,0.83313 -3.225,2.15c-0.72562,1.76031 0.17469,3.78938 1.935,4.515c1.76031,0.72563 3.68188,-0.17469 4.4075,-1.935c0.72563,-1.76031 -0.06719,-3.78937 -1.8275,-4.515c-0.44344,-0.18812 -0.84656,-0.215 -1.29,-0.215zM47.085,43.645c-0.88687,0 -1.80062,0.29563 -2.4725,0.9675c-1.34375,1.34375 -1.34375,3.60125 0,4.945c1.34375,1.34375 3.60125,1.34375 4.945,0c1.34375,-1.34375 1.34375,-3.60125 0,-4.945c-0.67187,-0.67187 -1.58562,-0.9675 -2.4725,-0.9675zM124.915,43.645c-0.88687,0 -1.80062,0.29563 -2.4725,0.9675c-1.34375,1.34375 -1.34375,3.60125 0,4.945c1.34375,1.34375 3.60125,1.34375 4.945,0c1.34375,-1.34375 1.34375,-3.60125 0,-4.945c-0.67187,-0.67187 -1.58562,-0.9675 -2.4725,-0.9675zM116.96,55.04l-16.985,3.5475l4.3,4.1925l-13.975,13.975c-1.33031,-0.61812 -2.75469,-1.075 -4.3,-1.075c-5.65719,0 -10.32,4.66281 -10.32,10.32c0,1.58563 0.43,3.06375 1.075,4.4075l-10.32,10.32c-1.23625,-0.59125 -2.63375,-0.90031 -3.9775,-0.9675c-0.81969,-0.04031 -1.66625,0.05375 -2.4725,0.215c-0.1075,0 -0.215,0 -0.3225,0c-1.86781,0.44344 -3.02344,2.32469 -2.58,4.1925c0.44344,1.86781 2.32469,3.02344 4.1925,2.58c0.67188,-0.13437 1.3975,-0.13437 2.0425,0.1075c0.3225,0.86 0.98094,1.55875 1.8275,1.935c0.215,0.61813 0.22844,1.29 0.1075,1.935c-0.36281,1.86781 0.87344,3.66844 2.74125,4.03125c1.86781,0.36281 3.66844,-0.87344 4.03125,-2.74125c0.41656,-2.13656 0.06719,-4.35375 -0.86,-6.3425l10.4275,-10.4275c1.34375,0.645 2.82188,1.075 4.4075,1.075c5.65719,0 10.32,-4.66281 10.32,-10.32c0,-1.54531 -0.45687,-2.96969 -1.075,-4.3l13.975,-13.975l4.1925,4.3zM35.1525,61.49c-1.34375,0.01344 -2.67406,0.83313 -3.225,2.15c-0.72562,1.76031 0.17469,3.78938 1.935,4.515c1.76031,0.72563 3.78938,-0.17469 4.515,-1.935c0.72563,-1.76031 -0.17469,-3.78937 -1.935,-4.515c-0.44344,-0.18812 -0.84656,-0.215 -1.29,-0.215zM136.8475,61.49c-0.44344,0 -0.84656,0.02688 -1.29,0.215c-1.76031,0.72563 -2.66062,2.75469 -1.935,4.515c0.72563,1.76031 2.75469,2.66063 4.515,1.935c1.76031,-0.72562 2.66063,-2.75469 1.935,-4.515c-0.55094,-1.31687 -1.88125,-2.13656 -3.225,-2.15zM30.96,82.56c-1.89469,0 -3.44,1.54531 -3.44,3.44c0,1.89469 1.54531,3.44 3.44,3.44c1.89469,0 3.44,-1.54531 3.44,-3.44c0,-1.89469 -1.54531,-3.44 -3.44,-3.44zM86,82.56c0.9675,0 1.85438,0.34938 2.4725,0.9675c0.04031,0.04031 0.06719,0.06719 0.1075,0.1075c0.55094,0.60469 0.86,1.45125 0.86,2.365c0,1.935 -1.505,3.44 -3.44,3.44c-1.935,0 -3.44,-1.505 -3.44,-3.44c0,-1.935 1.505,-3.44 3.44,-3.44zM141.04,82.56c-1.89469,0 -3.44,1.54531 -3.44,3.44c0,1.89469 1.54531,3.44 3.44,3.44c1.89469,0 3.44,-1.54531 3.44,-3.44c0,-1.89469 -1.54531,-3.44 -3.44,-3.44zM35.1525,103.63c-0.44344,0 -0.84656,0.02688 -1.29,0.215c-1.76031,0.72563 -2.66062,2.75469 -1.935,4.515c0.72563,1.76031 2.75469,2.55313 4.515,1.8275c1.76031,-0.72562 2.66063,-2.64719 1.935,-4.4075c-0.55094,-1.31687 -1.88125,-2.13656 -3.225,-2.15zM136.8475,103.63c-1.34375,0.01344 -2.67406,0.83313 -3.225,2.15c-0.72562,1.76031 0.17469,3.68188 1.935,4.4075c1.76031,0.72563 3.78938,-0.06719 4.515,-1.8275c0.72563,-1.76031 -0.17469,-3.78937 -1.935,-4.515c-0.44344,-0.18812 -0.84656,-0.215 -1.29,-0.215zM47.085,121.475c-0.88687,0 -1.80062,0.29563 -2.4725,0.9675c-1.34375,1.34375 -1.34375,3.60125 0,4.945c1.34375,1.34375 3.60125,1.34375 4.945,0c1.34375,-1.34375 1.34375,-3.60125 0,-4.945c-0.67187,-0.67187 -1.58562,-0.9675 -2.4725,-0.9675zM124.915,121.475c-0.88687,0 -1.80062,0.29563 -2.4725,0.9675c-1.34375,1.34375 -1.34375,3.60125 0,4.945c1.34375,1.34375 3.60125,1.34375 4.945,0c1.34375,-1.34375 1.34375,-3.60125 0,-4.945c-0.67187,-0.67187 -1.58562,-0.9675 -2.4725,-0.9675zM64.93,133.4075c-1.34375,0.01344 -2.56656,0.83313 -3.1175,2.15c-0.72562,1.76031 0.06719,3.78938 1.8275,4.515c1.76031,0.72563 3.78938,-0.17469 4.515,-1.935c0.72563,-1.76031 -0.17469,-3.78937 -1.935,-4.515c-0.44344,-0.18812 -0.84656,-0.215 -1.29,-0.215zM107.07,133.4075c-0.44344,0 -0.84656,0.02688 -1.29,0.215c-1.76031,0.72563 -2.66062,2.75469 -1.935,4.515c0.72563,1.76031 2.75469,2.66063 4.515,1.935c1.76031,-0.72562 2.66063,-2.75469 1.935,-4.515c-0.55094,-1.31687 -1.88125,-2.13656 -3.225,-2.15z"></path></g></g></svg>