<svg xmlns="http://www.w3.org/2000/svg" x="0px" y="0px"
width="50" height="50"
viewBox="0 0 172 172"
style=" fill:#000000;"><g fill="none" fill-rule="nonzero" stroke="none" stroke-width="1" stroke-linecap="butt" stroke-linejoin="miter" stroke-miterlimit="10" stroke-dasharray="" stroke-dashoffset="0" font-family="none" font-weight="none" font-size="none" text-anchor="none" style="mix-blend-mode: normal"><path d="M0,172v-172h172v172z" fill="none"></path><g fill="#ffffff"><path d="M85.94625,24.02625c-0.215,0.01344 -0.41656,0.02688 -0.63156,0.08063c-14.43187,0.12094 -27.95,4.11187 -39.57344,10.99187c-0.28219,0.12094 -0.55094,0.28219 -0.80625,0.47031c-11.81156,7.18906 -21.58062,17.415 -28.2725,29.5625c-0.17469,0.24187 -0.3225,0.49719 -0.43,0.77937c-5.85875,10.92469 -9.21812,23.38125 -9.32562,36.59031c-0.09406,0.45688 -0.09406,0.91375 0,1.35719c0.1075,14.53938 3.73562,27.305 10.79031,39.00906c0.81969,1.35719 2.4725,1.97531 3.99094,1.49156c1.51844,-0.48375 2.51281,-1.94844 2.39187,-3.53406l0.16125,2.10969l12.91344,-7.48469c1.10188,-0.59125 1.78719,-1.73344 1.78719,-2.98312c0.01344,-1.24969 -0.65844,-2.40531 -1.74688,-3.02344c-1.08844,-0.61812 -2.41875,-0.59125 -3.49375,0.05375l-11.47562,6.65156c-4.89125,-9.05687 -7.8475,-18.55719 -8.35813,-29.50875h13.6525c1.23625,0.01344 2.39188,-0.63156 3.02344,-1.70656c0.61813,-1.075 0.61813,-2.39187 0,-3.46687c-0.63156,-1.075 -1.78719,-1.72 -3.02344,-1.70656h-13.6525c0.47031,-9.97062 2.99656,-19.37687 7.095,-27.88281c1.935,1.04813 5.02563,2.71438 11.97281,6.49031c1.08844,0.61813 2.41875,0.60469 3.49375,-0.04031c1.06156,-0.645 1.70656,-1.8275 1.65281,-3.06375c-0.04031,-1.24969 -0.7525,-2.37844 -1.86781,-2.95625c-6.94719,-3.7625 -10.02438,-5.42875 -11.97281,-6.47687c5.50938,-9.07031 12.87313,-16.86406 21.67469,-22.73625l7.08156,11.78469c0.61813,1.06156 1.77375,1.72 3.01,1.70656c1.24969,-0.02688 2.37844,-0.69875 2.98313,-1.78719c0.59125,-1.08844 0.55094,-2.41875 -0.09406,-3.46688l-7.08156,-11.78469c9.23156,-4.95844 19.65906,-7.955 30.745,-8.47906v13.6525c-0.01344,1.23625 0.63156,2.39188 1.70656,3.02344c1.075,0.61813 2.39187,0.61813 3.46687,0c1.075,-0.63156 1.72,-1.78719 1.70656,-3.02344v-13.6525c9.97063,0.47031 19.40375,2.94281 27.90969,7.04125l-6.51719,12.02656c-0.61812,1.08844 -0.60469,2.41875 0.04031,3.49375c0.645,1.06156 1.8275,1.70656 3.06375,1.65281c1.24969,-0.04031 2.37844,-0.7525 2.95625,-1.86781l6.50375,-12.01313c9.07031,5.49594 16.83719,12.91344 22.70937,21.715l-11.78469,7.08156c-1.06156,0.61813 -1.72,1.77375 -1.70656,3.01c0.02688,1.24969 0.69875,2.37844 1.78719,2.98313c1.08844,0.59125 2.41875,0.55094 3.46687,-0.09406l11.78469,-7.08156c4.95844,9.23156 7.955,19.65906 8.47906,30.745h-13.6525c-1.23625,-0.01344 -2.39187,0.63156 -3.02344,1.70656c-0.61813,1.075 -0.61813,2.39187 0,3.46687c0.63156,1.075 1.78719,1.72 3.02344,1.70656h13.6525c-0.51062,10.95156 -3.46687,20.45188 -8.34469,29.50875l-11.48906,-6.65156c-1.075,-0.645 -2.40531,-0.67187 -3.49375,-0.05375c-1.08844,0.61813 -1.76031,1.77375 -1.74687,3.02344c0,1.24969 0.68531,2.39187 1.78719,2.98312l12.91344,7.48469l0.16125,-2.10969c-0.12094,1.58563 0.87344,3.05031 2.39188,3.53406c1.51844,0.48375 3.17125,-0.13438 3.99094,-1.49156c7.05469,-11.69062 10.68281,-24.45625 10.80375,-38.96875c0.08062,-0.45687 0.08062,-0.92719 0,-1.37062c-0.13438,-14.45875 -4.13875,-28.00375 -11.04563,-39.62719c-0.09406,-0.25531 -0.22844,-0.48375 -0.38969,-0.71219c-0.01344,0 -0.01344,0 -0.01344,0c0,-0.01344 -0.01344,-0.01344 -0.02688,-0.02687c-7.17562,-11.79813 -17.37469,-21.55375 -29.49531,-28.24563c-0.29563,-0.22844 -0.61813,-0.38969 -0.95406,-0.51062c-10.91125,-5.83188 -23.3275,-9.19125 -36.52313,-9.29875c-0.22844,-0.05375 -0.47031,-0.08063 -0.71219,-0.08063zM125.76156,76.29813c-0.65844,-0.01344 -1.30344,0.16125 -1.86781,0.51062l-31.33625,18.51688c-1.78719,-1.505 -4.05812,-2.44563 -6.5575,-2.44563c-5.65719,0 -10.32,4.66281 -10.32,10.32c0,5.65719 4.66281,10.32 10.32,10.32c5.65719,0 10.32,-4.66281 10.32,-10.32c0,-0.67187 -0.08062,-1.34375 -0.20156,-1.98875l31.26906,-18.49c1.34375,-0.76594 2.00219,-2.33812 1.62594,-3.82969c-0.37625,-1.49156 -1.70656,-2.55313 -3.25187,-2.59344zM86,99.76c1.08844,0 2.00219,0.49719 2.62031,1.24969c0.13437,0.36281 0.33594,0.68531 0.59125,0.98094c0.13437,0.37625 0.22844,0.77937 0.22844,1.20937c0,1.935 -1.505,3.44 -3.44,3.44c-1.935,0 -3.44,-1.505 -3.44,-3.44c0,-1.935 1.505,-3.44 3.44,-3.44zM65.36,130.72c-1.23625,-0.01344 -2.39187,0.63156 -3.02344,1.70656c-0.61813,1.075 -0.61813,2.39187 0,3.46687c0.63156,1.075 1.78719,1.72 3.02344,1.70656h41.28c1.23625,0.01344 2.39188,-0.63156 3.02344,-1.70656c0.61813,-1.075 0.61813,-2.39187 0,-3.46687c-0.63156,-1.075 -1.78719,-1.72 -3.02344,-1.70656z"></path></g></g></svg>