<svg xmlns="http://www.w3.org/2000/svg" x="0px" y="0px"
width="50" height="50"
viewBox="0 0 172 172"
style=" fill:#000000;"><g fill="none" fill-rule="nonzero" stroke="none" stroke-width="1" stroke-linecap="butt" stroke-linejoin="miter" stroke-miterlimit="10" stroke-dasharray="" stroke-dashoffset="0" font-family="none" font-weight="none" font-size="none" text-anchor="none" style="mix-blend-mode: normal"><path d="M0,172v-172h172v172z" fill="none"></path><g fill="#ffffff"><path d="M86,3.52063l-39.07625,36.14687c-1.84094,1.65281 -2.66062,4.17906 -2.12312,6.61125c0.5375,2.41875 2.33812,4.36719 4.71656,5.09281c2.37844,0.72562 4.95844,0.12094 6.75906,-1.59906l22.84375,-21.13719v133.04469c-0.04031,2.48594 1.26313,4.78375 3.41313,6.03344c2.13656,1.26313 4.79719,1.26313 6.93375,0c2.15,-1.24969 3.45344,-3.5475 3.41312,-6.03344v-133.04469l22.84375,21.13719c1.80063,1.72 4.38063,2.32469 6.75906,1.59906c2.37844,-0.72563 4.17906,-2.67406 4.71656,-5.09281c0.5375,-2.43219 -0.28219,-4.95844 -2.12313,-6.61125z"></path></g></g></svg>