<svg xmlns="http://www.w3.org/2000/svg" x="0px" y="0px"
width="50" height="50"
viewBox="0 0 172 172"
style=" fill:#000000;"><g fill="none" fill-rule="nonzero" stroke="none" stroke-width="1" stroke-linecap="butt" stroke-linejoin="miter" stroke-miterlimit="10" stroke-dasharray="" stroke-dashoffset="0" font-family="none" font-weight="none" font-size="none" text-anchor="none" style="mix-blend-mode: normal"><path d="M0,172v-172h172v172z" fill="none"></path><g fill="#ffffff"><path d="M85.8925,3.34594c-3.78937,0.05375 -6.82625,3.17125 -6.7725,6.97406v133.04469l-22.84375,-21.13719c-1.80062,-1.72 -4.38062,-2.32469 -6.75906,-1.59906c-2.37844,0.72563 -4.17906,2.67406 -4.71656,5.09281c-0.5375,2.43219 0.28219,4.95844 2.12312,6.61125l39.07625,36.13344l39.07625,-36.13344c2.10969,-1.89469 2.83531,-4.89125 1.8275,-7.55187c-0.99437,-2.66063 -3.53406,-4.42094 -6.36937,-4.44781c-1.78719,-0.01344 -3.50719,0.65844 -4.81063,1.89469l-22.84375,21.13719v-133.04469c0.02688,-1.85437 -0.69875,-3.64156 -2.01562,-4.95844c-1.31688,-1.31688 -3.10406,-2.0425 -4.97188,-2.01563z"></path></g></g></svg>