<svg xmlns="http://www.w3.org/2000/svg" x="0px" y="0px"
width="50" height="50"
viewBox="0 0 172 172"
style=" fill:#000000;"><g fill="none" fill-rule="nonzero" stroke="none" stroke-width="1" stroke-linecap="butt" stroke-linejoin="miter" stroke-miterlimit="10" stroke-dasharray="" stroke-dashoffset="0" font-family="none" font-weight="none" font-size="none" text-anchor="none" style="mix-blend-mode: normal"><path d="M0,172v-172h172v172z" fill="none"></path><g fill="#ffffff"><path d="M53.32,13.76c-9.18579,0 -17.26866,4.83773 -21.82922,12.08703c-0.69431,1.04006 -0.76959,2.37497 -0.1966,3.4865c0.57299,1.11153 1.70399,1.82461 2.95394,1.86241c1.24995,0.03781 2.42198,-0.60561 3.0611,-1.68048c3.35144,-5.32734 9.23497,-8.87547 16.01078,-8.87547c10.65731,0 19.1883,8.68957 18.91328,19.4239c-0.26597,10.33229 -9.41664,18.4161 -19.94797,18.4161h-38.52531c-1.24059,-0.01754 -2.39452,0.63425 -3.01993,1.7058c-0.62541,1.07155 -0.62541,2.39684 0,3.46839c0.62541,1.07155 1.77935,1.72335 3.01993,1.7058h38.52531c14.06467,0 26.46098,-10.86457 26.82797,-25.1214c0.37171,-14.50839 -11.35923,-26.4786 -25.79328,-26.4786zM130.72,27.52c-11.63733,0 -21.81139,6.44937 -27.09,15.97719c-0.5969,1.0754 -0.57462,2.38758 0.05845,3.4421c0.63307,1.05452 1.78071,1.6911 3.01048,1.66987c1.22977,-0.02122 2.35476,-0.69702 2.95107,-1.77276c4.10571,-7.41074 11.97101,-12.4364 21.07,-12.4364c13.83412,0 24.87715,11.52609 24.03297,25.57156c-0.76982,12.80835 -12.10395,22.58844 -25.10797,22.58844h-115.885c-1.24059,-0.01754 -2.39452,0.63425 -3.01993,1.7058c-0.62541,1.07155 -0.62541,2.39684 0,3.46839c0.62541,1.07155 1.77935,1.72335 3.01993,1.7058h115.885c16.46302,0 30.97619,-12.44135 31.97453,-29.05187c1.07534,-17.89149 -13.20949,-32.86813 -30.89953,-32.86813zM13.76,106.64c-1.24059,-0.01754 -2.39452,0.63425 -3.01993,1.7058c-0.62541,1.07155 -0.62541,2.39684 0,3.46839c0.62541,1.07155 1.77935,1.72335 3.01993,1.7058h72.92531c10.53133,0 19.682,8.08381 19.94797,18.4161c0.27501,10.73433 -8.25597,19.4239 -18.91328,19.4239c-6.77581,0 -12.65934,-3.54813 -16.01078,-8.87547c-0.63911,-1.07487 -1.81115,-1.7183 -3.0611,-1.68049c-1.24995,0.03781 -2.38096,0.75089 -2.95395,1.86242c-0.57299,1.11153 -0.49771,2.44644 0.19661,3.48651c4.56056,7.2493 12.64343,12.08703 21.82922,12.08703c14.43405,0 26.16499,-11.97021 25.79328,-26.4786c-0.36699,-14.25683 -12.7633,-25.1214 -26.82797,-25.1214z"></path></g></g></svg>